D:\school\WTK\thesis\model\3dpredictsim\Results\Batchsim_tmt_linear_v2\Pog_s1_tmt_aCst_d00_k1000_ig24_act_GRF.mot
nRows=30
nColumns=19

name D:\school\WTK\thesis\model\3dpredictsim\Results\Batchsim_tmt_linear_v2\Pog_s1_tmt_aCst_d00_k1000_ig24_act_GRF.mot
datacolumns 19
datarows 30
range 0.0000000000 0.3658690424
endheader
time 	ground_force_vx	ground_force_vy	ground_force_vz	ground_force_px	ground_force_py	ground_force_pz	1_ground_force_vx	1_ground_force_vy	1_ground_force_vz	1_ground_force_px	1_ground_force_py	1_ground_force_pz	ground_torque_x	ground_torque_y	ground_torque_z	1_ground_torque_x	1_ground_torque_y	1_ground_torque_z
        0.0000000000	      -89.6582863789	       73.1980914422	       17.3041346783	        0.3816926604	        0.0000000000	        0.0291916360	       61.2650222979	      291.4065302947	       -8.8242098570	       -0.3739978280	        0.0000000000	       -0.0419878681	        0.0000000000	        0.0000000000	        0.0000000000	        0.0000000000	        0.0000000000	        0.0000000000	
        0.0126161739	     -177.7486899640	      169.8092013667	       30.7880140324	        0.3653880802	        0.0000000000	        0.0354381525	       35.8630743329	      230.5545459527	      -11.3397305581	       -0.3560452862	        0.0000000000	       -0.0399437141	        0.0000000000	        0.0000000000	        0.0000000000	        0.0000000000	        0.0000000000	        0.0000000000	
        0.0252323477	     -198.8659917916	      451.6518438817	        8.5458021645	        0.3285555205	        0.0000000000	        0.0469685779	       37.5859825897	      195.7547094966	      -16.7961909679	       -0.3556338225	        0.0000000000	       -0.0402896724	        0.0000000000	        0.0000000000	        0.0000000000	        0.0000000000	        0.0000000000	        0.0000000000	
        0.0378485216	     -209.9599303335	      637.7571294705	       -2.8763640241	        0.3126339289	        0.0000000000	        0.0511570046	       35.3045307326	      150.1334922882	      -19.2740836861	       -0.3550806409	        0.0000000000	       -0.0405543839	        0.0000000000	        0.0000000000	        0.0000000000	        0.0000000000	        0.0000000000	        0.0000000000	
        0.0504646955	     -197.6744025758	      772.1041401683	       -5.4857197629	        0.3039573043	        0.0000000000	        0.0534129079	       27.0569264057	       95.5704015338	      -18.4826606603	       -0.3544864263	        0.0000000000	       -0.0408700599	        0.0000000000	        0.0000000000	        0.0000000000	        0.0000000000	        0.0000000000	        0.0000000000	
        0.0630808694	     -201.8706921900	      876.9782973725	       -9.1933363955	        0.2988908196	        0.0000000000	        0.0547217459	        6.4724751322	       34.2189023817	       -8.5845321006	       -0.3550333975	        0.0000000000	       -0.0408051162	        0.0000000000	        0.0000000000	        0.0000000000	        0.0000000000	        0.0000000000	        0.0000000000	
        0.0756970432	     -196.0724270239	      899.1709058527	      -11.3839849621	        0.2957055648	        0.0000000000	        0.0554115686	        0.2676000359	       -0.2666346272	        0.0186320098	        0.0000000000	        0.0000000000	        0.0000000000	        0.0000000000	        0.0000000000	        0.0000000000	        0.0000000000	        0.0000000000	        0.0000000000	
        0.0883132171	     -177.0270115427	      872.5407999711	      -11.7524160665	        0.2938541043	        0.0000000000	        0.0558289670	        0.2873689762	       -0.2178618410	       -0.0124775392	        0.0000000000	        0.0000000000	        0.0000000000	        0.0000000000	        0.0000000000	        0.0000000000	        0.0000000000	        0.0000000000	        0.0000000000	
        0.1009293910	     -155.5890309235	      816.4149818509	      -11.8048575074	        0.2938106902	        0.0000000000	        0.0561755793	       -5.0763244300	        3.2430223550	        0.3093024437	        0.0000000000	        0.0000000000	        0.0000000000	        0.0000000000	        0.0000000000	        0.0000000000	        0.0000000000	        0.0000000000	        0.0000000000	
        0.1135455649	     -137.7697443056	      764.6247235392	      -12.8311633296	        0.2948588689	        0.0000000000	        0.0564775454	       -5.5495903097	        3.1309851734	        0.3642176727	        0.0000000000	        0.0000000000	        0.0000000000	        0.0000000000	        0.0000000000	        0.0000000000	        0.0000000000	        0.0000000000	        0.0000000000	
        0.1261617387	     -121.0344227241	      719.2007259767	      -13.0011538670	        0.2962702035	        0.0000000000	        0.0568142912	       -4.5362744082	        2.3070078480	        0.3248104032	        0.0000000000	        0.0000000000	        0.0000000000	        0.0000000000	        0.0000000000	        0.0000000000	        0.0000000000	        0.0000000000	        0.0000000000	
        0.1387779126	     -105.4934515040	      686.7464557959	      -13.6932351724	        0.2980889604	        0.0000000000	        0.0571213610	       -4.0375125127	        1.9059023935	        0.2886571749	        0.0000000000	        0.0000000000	        0.0000000000	        0.0000000000	        0.0000000000	        0.0000000000	        0.0000000000	        0.0000000000	        0.0000000000	
        0.1513940865	      -91.8467816765	      660.7942220590	      -14.5134390256	        0.3002979781	        0.0000000000	        0.0573283148	       -3.3628105624	        1.5152605242	        0.2106416590	        0.0000000000	        0.0000000000	        0.0000000000	        0.0000000000	        0.0000000000	        0.0000000000	        0.0000000000	        0.0000000000	        0.0000000000	
        0.1640102604	      -82.1312083702	      640.4059378586	      -15.3233168275	        0.3026814481	        0.0000000000	        0.0574469789	       -2.7480543339	        1.1902824399	        0.1505201293	        0.0000000000	        0.0000000000	        0.0000000000	        0.0000000000	        0.0000000000	        0.0000000000	        0.0000000000	        0.0000000000	        0.0000000000	
        0.1766264342	      -74.7096923025	      622.7545142815	      -16.7948709844	        0.3050184810	        0.0000000000	        0.0574870271	       -2.2367043005	        0.9395940751	        0.1051234317	        0.0000000000	        0.0000000000	        0.0000000000	        0.0000000000	        0.0000000000	        0.0000000000	        0.0000000000	        0.0000000000	        0.0000000000	
        0.1892426081	      -68.3458300102	      606.1792978589	      -18.0531287503	        0.3071495606	        0.0000000000	        0.0575024037	       -1.8324620519	        0.7517380852	        0.0724441167	        0.0000000000	        0.0000000000	        0.0000000000	        0.0000000000	        0.0000000000	        0.0000000000	        0.0000000000	        0.0000000000	        0.0000000000	
        0.2018587820	      -62.6117910833	      590.3339828499	      -19.2079098976	        0.3089324319	        0.0000000000	        0.0575141491	       -1.5555347866	        0.6268773192	        0.0502619571	        0.0000000000	        0.0000000000	        0.0000000000	        0.0000000000	        0.0000000000	        0.0000000000	        0.0000000000	        0.0000000000	        0.0000000000	
        0.2144749559	      -57.2046680137	      575.4131371397	      -20.4274465511	        0.3103553763	        0.0000000000	        0.0575245855	       -1.4078310450	        0.5594391932	        0.0365358953	        0.0000000000	        0.0000000000	        0.0000000000	        0.0000000000	        0.0000000000	        0.0000000000	        0.0000000000	        0.0000000000	        0.0000000000	
        0.2270911297	      -52.0803511941	      561.0793465849	      -21.7488625672	        0.3114980274	        0.0000000000	        0.0575262543	       -1.3607740387	        0.5344719123	        0.0284949534	        0.0000000000	        0.0000000000	        0.0000000000	        0.0000000000	        0.0000000000	        0.0000000000	        0.0000000000	        0.0000000000	        0.0000000000	
        0.2397073036	      -47.0740289434	      547.2157207269	      -22.9322943157	        0.3124042283	        0.0000000000	        0.0575216279	       -1.3843141424	        0.5381701301	        0.0244445924	        0.0000000000	        0.0000000000	        0.0000000000	        0.0000000000	        0.0000000000	        0.0000000000	        0.0000000000	        0.0000000000	        0.0000000000	
        0.2523234775	      -42.0985951418	      534.0855903632	      -24.3448014077	        0.3130646499	        0.0000000000	        0.0574985703	       -1.4479290112	        0.5577264310	        0.0234709065	        0.0000000000	        0.0000000000	        0.0000000000	        0.0000000000	        0.0000000000	        0.0000000000	        0.0000000000	        0.0000000000	        0.0000000000	
        0.2649396514	      -37.0061898724	      521.6617682031	      -25.5060047120	        0.3134563512	        0.0000000000	        0.0574646083	       -1.5131052015	        0.5782007732	        0.0244474337	        0.0000000000	        0.0000000000	        0.0000000000	        0.0000000000	        0.0000000000	        0.0000000000	        0.0000000000	        0.0000000000	        0.0000000000	
        0.2775558252	      -31.6778053377	      510.1520987434	      -26.1212907826	        0.3135695827	        0.0000000000	        0.0574175631	       -1.5566448589	        0.5909136714	        0.0260537613	        0.0000000000	        0.0000000000	        0.0000000000	        0.0000000000	        0.0000000000	        0.0000000000	        0.0000000000	        0.0000000000	        0.0000000000	
        0.2901719991	      -25.9499303066	      499.9432744352	      -26.2018075800	        0.3134119897	        0.0000000000	        0.0573429141	       -1.5956810886	        0.6021677727	        0.0277529507	        0.0000000000	        0.0000000000	        0.0000000000	        0.0000000000	        0.0000000000	        0.0000000000	        0.0000000000	        0.0000000000	        0.0000000000	
        0.3027881730	      -19.8124593012	      492.3688534587	      -26.0668788652	        0.3130092310	        0.0000000000	        0.0572174343	       -1.6739156938	        0.6281537637	        0.0300292727	        0.0000000000	        0.0000000000	        0.0000000000	        0.0000000000	        0.0000000000	        0.0000000000	        0.0000000000	        0.0000000000	        0.0000000000	
        0.3154043469	      -13.2712398011	      488.6337380940	      -25.5648152132	        0.3123931717	        0.0000000000	        0.0570344127	       -1.7996946446	        0.6723059089	        0.0324512245	        0.0000000000	        0.0000000000	        0.0000000000	        0.0000000000	        0.0000000000	        0.0000000000	        0.0000000000	        0.0000000000	        0.0000000000	
        0.3280205207	       -6.2126642459	      489.2042236921	      -24.8087479188	        0.3116211625	        0.0000000000	        0.0567738766	       -1.9594409656	        0.7299412358	        0.0335991400	        0.0000000000	        0.0000000000	        0.0000000000	        0.0000000000	        0.0000000000	        0.0000000000	        0.0000000000	        0.0000000000	        0.0000000000	
        0.3406366946	        1.0894019037	      495.2955431070	      -23.6385077624	        0.3107946342	        0.0000000000	        0.0564253229	       -2.1226793560	        0.7904379471	        0.0323353696	        0.0000000000	        0.0000000000	        0.0000000000	        0.0000000000	        0.0000000000	        0.0000000000	        0.0000000000	        0.0000000000	        0.0000000000	
        0.3532528685	        8.6294401585	      504.9732656477	      -23.3654148328	        0.3099719388	        0.0000000000	        0.0559427604	       -2.2445589187	        0.8374903898	        0.0281132954	        0.0000000000	        0.0000000000	        0.0000000000	        0.0000000000	        0.0000000000	        0.0000000000	        0.0000000000	        0.0000000000	        0.0000000000	
        0.3658690424	       17.0378772419	      519.3531629954	      -22.1843920116	        0.3092630634	        0.0000000000	        0.0553922339	       -2.2770879615	        0.8534345153	        0.0207093784	        0.0000000000	        0.0000000000	        0.0000000000	        0.0000000000	        0.0000000000	        0.0000000000	        0.0000000000	        0.0000000000	        0.0000000000	
